<svg width="32" height="32" viewBox="0 0 32 32" fill="none" xmlns="http://www.w3.org/2000/svg">
<g clip-path="url(#clip0_298_438)">
<path d="M17.725 0C18.1954 0 18.6162 0.2928 18.7746 0.7312L19.9042 3.8624C20.3085 3.96267 20.6573 4.06507 20.9506 4.1696C21.2706 4.28373 21.6866 4.45973 22.1986 4.6976L24.829 3.3056C25.0436 3.19133 25.2895 3.14998 25.5297 3.18779C25.7698 3.2256 25.9911 3.34052 26.1602 3.5152L28.4738 5.9072C28.781 6.2256 28.8674 6.6912 28.6946 7.0976L27.461 9.9888C27.6648 10.3643 27.829 10.6864 27.9538 10.9552C28.0882 11.2464 28.2546 11.6517 28.453 12.1712L31.3282 13.4032C31.7602 13.5872 32.0274 14.0192 31.9986 14.4816L31.7874 17.8016C31.773 18.0173 31.6955 18.224 31.5647 18.3961C31.4339 18.5681 31.2554 18.698 31.0514 18.7696L28.3282 19.7376C28.2504 20.1131 28.1682 20.4363 28.0818 20.7072C27.942 21.1271 27.7829 21.5403 27.605 21.9456L28.973 24.9696C29.0703 25.1819 29.0968 25.4199 29.0483 25.6484C28.9999 25.8769 28.8793 26.0838 28.7042 26.2384L26.1026 28.5616C25.9316 28.7146 25.7178 28.8113 25.49 28.8388C25.2622 28.8663 25.0315 28.8231 24.829 28.7152L22.1474 27.2944C21.7283 27.5174 21.2954 27.7135 20.8514 27.8816L19.6802 28.32L18.6402 31.2C18.5624 31.4104 18.4232 31.5926 18.2406 31.723C18.058 31.8534 17.8405 31.9259 17.6162 31.9312L14.5762 32C14.3459 32.0053 14.1195 31.9395 13.928 31.8116C13.7364 31.6836 13.589 31.4996 13.5058 31.2848L12.2802 28.0416C11.8622 27.8984 11.4481 27.7437 11.0386 27.5776C10.7038 27.4327 10.374 27.2763 10.0498 27.1088L7.00982 28.408C6.80959 28.4939 6.58866 28.5195 6.3741 28.4817C6.15954 28.4439 5.96066 28.3443 5.80182 28.1952L3.55222 26.0848C3.38411 25.9288 3.26961 25.7236 3.22507 25.4986C3.18053 25.2736 3.20823 25.0403 3.30422 24.832L4.61142 21.984C4.43819 21.6464 4.27702 21.3027 4.12822 20.9536C3.9549 20.5261 3.79482 20.0934 3.64822 19.656L0.784222 18.784C0.551423 18.7136 0.348373 18.5684 0.206605 18.3708C0.064838 18.1732 -0.00771229 17.9343 0.00022174 17.6912L0.112222 14.6176C0.120542 14.4171 0.183329 14.2227 0.293835 14.0553C0.404341 13.8878 0.558388 13.7537 0.739422 13.6672L3.74422 12.224C3.88289 11.7141 4.00555 11.3152 4.11222 11.0272C4.26319 10.6404 4.43081 10.2603 4.61462 9.888L3.31222 7.136C3.21263 6.92717 3.18221 6.69203 3.22537 6.46472C3.26853 6.23742 3.38302 6.0298 3.55222 5.872L5.79862 3.7504C5.95588 3.60152 6.15294 3.50143 6.36591 3.46224C6.57889 3.42306 6.79867 3.44645 6.99862 3.5296L10.0354 4.784C10.3704 4.56107 10.6754 4.3776 10.9506 4.2336C11.2781 4.0608 11.7176 3.87627 12.269 3.68L13.325 0.7344C13.4039 0.519347 13.5468 0.333644 13.7345 0.202327C13.9221 0.0710104 14.1456 0.000394575 14.3746 0L17.725 0ZM16.941 2.2032H15.1602L14.1922 4.9136C14.1346 5.07123 14.0423 5.2139 13.9221 5.33104C13.8019 5.44819 13.6569 5.53683 13.4978 5.5904C12.8002 5.8224 12.2962 6.0224 12.0018 6.1776C11.6882 6.34293 11.2936 6.5936 10.8178 6.9296C10.663 7.0388 10.483 7.10694 10.2947 7.12765C10.1064 7.14835 9.91587 7.12095 9.74102 7.048L6.81302 5.84L5.67222 6.9184L6.86102 9.4304C6.93219 9.57986 6.96832 9.74358 6.96666 9.90911C6.96499 10.0746 6.92558 10.2376 6.85142 10.3856C6.53142 11.0272 6.31542 11.5008 6.20662 11.792C6.03907 12.2765 5.8949 12.7688 5.77462 13.2672C5.73442 13.4231 5.6606 13.5684 5.55834 13.6927C5.45607 13.8171 5.32783 13.9176 5.18262 13.9872L2.31862 15.3616L2.26102 16.9296L4.85302 17.7168C5.19702 17.8208 5.46902 18.0848 5.58262 18.424C5.83969 19.1941 6.04235 19.7573 6.19062 20.1136C6.38566 20.5644 6.60136 21.0059 6.83702 21.4368C6.91675 21.585 6.96099 21.7498 6.96627 21.918C6.97154 22.0863 6.93771 22.2534 6.86742 22.4064L5.66582 25.0272L6.80342 26.096L9.65462 24.8768C9.80812 24.8108 9.97443 24.78 10.1414 24.7867C10.3083 24.7933 10.4717 24.8372 10.6194 24.9152C11.2061 25.2224 11.6376 25.4347 11.9138 25.552C12.1938 25.6688 12.7298 25.864 13.5074 26.1296C13.6614 26.183 13.8019 26.2694 13.9191 26.3827C14.0363 26.496 14.1273 26.6335 14.1858 26.7856L15.3186 29.7792L16.8002 29.7472L17.7554 27.1008C17.8108 26.9502 17.8979 26.8133 18.0108 26.6993C18.1237 26.5853 18.2598 26.4968 18.4098 26.44L20.069 25.8192C20.4893 25.6645 20.9965 25.4192 21.5906 25.0832C21.7548 24.9905 21.9397 24.9407 22.1282 24.9384C22.3167 24.9362 22.5027 24.9816 22.669 25.0704L25.1922 26.4064L26.6114 25.1408L25.3698 22.4C25.306 22.2593 25.2728 22.1067 25.2725 21.9522C25.2722 21.7977 25.3049 21.6449 25.3682 21.504C25.6594 20.8528 25.8562 20.3616 25.9554 20.048C26.0546 19.7387 26.1533 19.2987 26.2514 18.728C26.285 18.5345 26.3696 18.3535 26.4964 18.2036C26.6232 18.0537 26.7878 17.9403 26.973 17.8752L29.6098 16.9392L29.725 15.1152L27.133 14.0048C26.9954 13.9454 26.8711 13.859 26.7675 13.7508C26.6639 13.6425 26.5831 13.5145 26.5298 13.3744C26.3453 12.8642 26.1436 12.3605 25.925 11.864C25.7184 11.4316 25.4942 11.0077 25.253 10.5936C25.1692 10.4474 25.1205 10.2837 25.1108 10.1154C25.1011 9.94713 25.1306 9.77891 25.197 9.624L26.357 6.904L25.1346 5.64L22.7538 6.9008C22.5985 6.9836 22.4259 7.02864 22.2499 7.03225C22.0739 7.03586 21.8996 6.99796 21.741 6.9216C21.236 6.6697 20.7191 6.44224 20.1922 6.24C19.7434 6.08846 19.2854 5.96554 18.821 5.872C18.6372 5.83211 18.4664 5.74656 18.3243 5.62324C18.1822 5.49992 18.0735 5.34281 18.0082 5.1664L16.941 2.2032ZM16.0386 9.0256C19.9346 9.0256 23.0946 12.1504 23.0946 16.0032C23.0946 19.856 19.9346 22.9792 16.0386 22.9792C12.1426 22.9792 8.98262 19.856 8.98262 16.0032C8.98262 12.1504 12.141 9.0272 16.0386 9.0272M16.0386 11.232C13.3714 11.232 11.2098 13.368 11.2098 16.0048C11.2098 18.6416 13.3714 20.7792 16.0386 20.7792C18.7058 20.7792 20.8658 18.6416 20.8658 16.0048C20.8658 13.368 18.7058 11.232 16.0386 11.232Z" fill="#E8E8EA"/>
</g>
<defs>
<clipPath id="clip0_298_438">
<rect width="32" height="32" fill="white"/>
</clipPath>
</defs>
</svg>
